<svg width="300" height="90" viewBox="0 0 300 90" fill="none" xmlns="http://www.w3.org/2000/svg">
<rect x="0.5" y="0.5" width="299" height="89" stroke="#E64F3A"/>
<rect opacity="0.3" x="99" y="44" width="112" height="13" fill="#E64F3A"/>
<path d="M96.12 45.86C96.12 46.6733 96.02 47.4067 95.82 48.06C95.62 48.7133 95.32 49.27 94.92 49.73C94.5267 50.19 94.0333 50.5433 93.44 50.79C92.8467 51.0367 92.1567 51.16 91.37 51.16C91.01 51.16 90.6567 51.1367 90.31 51.09C89.9633 51.05 89.6 50.9833 89.22 50.89C89.24 50.6233 89.2633 50.3567 89.29 50.09C89.3167 49.8233 89.34 49.5567 89.36 49.29C89.38 49.1433 89.4367 49.0267 89.53 48.94C89.63 48.8467 89.77 48.8 89.95 48.8C90.0633 48.8 90.21 48.8233 90.39 48.87C90.5767 48.9167 90.81 48.94 91.09 48.94C91.47 48.94 91.8067 48.8867 92.1 48.78C92.3933 48.6667 92.6367 48.49 92.83 48.25C93.03 48.01 93.18 47.7 93.28 47.32C93.38 46.9333 93.43 46.4667 93.43 45.92V36.54H96.12V45.86ZM114.594 43.77C114.594 44.83 114.417 45.8133 114.064 46.72C113.717 47.62 113.224 48.4 112.584 49.06C111.944 49.72 111.174 50.2367 110.274 50.61C109.374 50.9767 108.374 51.16 107.274 51.16C106.18 51.16 105.184 50.9767 104.284 50.61C103.384 50.2367 102.61 49.72 101.964 49.06C101.324 48.4 100.827 47.62 100.474 46.72C100.12 45.8133 99.9438 44.83 99.9438 43.77C99.9438 42.71 100.12 41.73 100.474 40.83C100.827 39.9233 101.324 39.14 101.964 38.48C102.61 37.82 103.384 37.3067 104.284 36.94C105.184 36.5667 106.18 36.38 107.274 36.38C108.007 36.38 108.697 36.4667 109.344 36.64C109.99 36.8067 110.584 37.0467 111.124 37.36C111.664 37.6667 112.147 38.0433 112.574 38.49C113.007 38.93 113.374 39.4233 113.674 39.97C113.974 40.5167 114.2 41.11 114.354 41.75C114.514 42.39 114.594 43.0633 114.594 43.77ZM111.844 43.77C111.844 42.9767 111.737 42.2667 111.524 41.64C111.31 41.0067 111.007 40.47 110.614 40.03C110.22 39.59 109.74 39.2533 109.174 39.02C108.614 38.7867 107.98 38.67 107.274 38.67C106.567 38.67 105.93 38.7867 105.364 39.02C104.804 39.2533 104.324 39.59 103.924 40.03C103.53 40.47 103.227 41.0067 103.014 41.64C102.8 42.2667 102.694 42.9767 102.694 43.77C102.694 44.5633 102.8 45.2767 103.014 45.91C103.227 46.5367 103.53 47.07 103.924 47.51C104.324 47.9433 104.804 48.2767 105.364 48.51C105.93 48.7433 106.567 48.86 107.274 48.86C107.98 48.86 108.614 48.7433 109.174 48.51C109.74 48.2767 110.22 47.9433 110.614 47.51C111.007 47.07 111.31 46.5367 111.524 45.91C111.737 45.2767 111.844 44.5633 111.844 43.77ZM121.256 51H118.556V36.54H121.256V51ZM138.284 36.54V51H136.904C136.69 51 136.51 50.9667 136.364 50.9C136.224 50.8267 136.087 50.7067 135.954 50.54L128.404 40.9C128.444 41.34 128.464 41.7467 128.464 42.12V51H126.094V36.54H127.504C127.617 36.54 127.714 36.5467 127.794 36.56C127.88 36.5667 127.954 36.5867 128.014 36.62C128.08 36.6467 128.144 36.69 128.204 36.75C128.264 36.8033 128.33 36.8767 128.404 36.97L135.984 46.65C135.964 46.4167 135.947 46.1867 135.934 45.96C135.92 45.7333 135.914 45.5233 135.914 45.33V36.54H138.284ZM161.757 36.54V51H160.377C160.164 51 159.984 50.9667 159.837 50.9C159.697 50.8267 159.56 50.7067 159.427 50.54L151.877 40.9C151.917 41.34 151.937 41.7467 151.937 42.12V51H149.567V36.54H150.977C151.09 36.54 151.187 36.5467 151.267 36.56C151.354 36.5667 151.427 36.5867 151.487 36.62C151.554 36.6467 151.617 36.69 151.677 36.75C151.737 36.8033 151.804 36.8767 151.877 36.97L159.457 46.65C159.437 46.4167 159.42 46.1867 159.407 45.96C159.394 45.7333 159.387 45.5233 159.387 45.33V36.54H161.757ZM180.367 43.77C180.367 44.83 180.191 45.8133 179.837 46.72C179.491 47.62 178.997 48.4 178.357 49.06C177.717 49.72 176.947 50.2367 176.047 50.61C175.147 50.9767 174.147 51.16 173.047 51.16C171.954 51.16 170.957 50.9767 170.057 50.61C169.157 50.2367 168.384 49.72 167.737 49.06C167.097 48.4 166.601 47.62 166.247 46.72C165.894 45.8133 165.717 44.83 165.717 43.77C165.717 42.71 165.894 41.73 166.247 40.83C166.601 39.9233 167.097 39.14 167.737 38.48C168.384 37.82 169.157 37.3067 170.057 36.94C170.957 36.5667 171.954 36.38 173.047 36.38C173.781 36.38 174.471 36.4667 175.117 36.64C175.764 36.8067 176.357 37.0467 176.897 37.36C177.437 37.6667 177.921 38.0433 178.347 38.49C178.781 38.93 179.147 39.4233 179.447 39.97C179.747 40.5167 179.974 41.11 180.127 41.75C180.287 42.39 180.367 43.0633 180.367 43.77ZM177.617 43.77C177.617 42.9767 177.511 42.2667 177.297 41.64C177.084 41.0067 176.781 40.47 176.387 40.03C175.994 39.59 175.514 39.2533 174.947 39.02C174.387 38.7867 173.754 38.67 173.047 38.67C172.341 38.67 171.704 38.7867 171.137 39.02C170.577 39.2533 170.097 39.59 169.697 40.03C169.304 40.47 169.001 41.0067 168.787 41.64C168.574 42.2667 168.467 42.9767 168.467 43.77C168.467 44.5633 168.574 45.2767 168.787 45.91C169.001 46.5367 169.304 47.07 169.697 47.51C170.097 47.9433 170.577 48.2767 171.137 48.51C171.704 48.7433 172.341 48.86 173.047 48.86C173.754 48.86 174.387 48.7433 174.947 48.51C175.514 48.2767 175.994 47.9433 176.387 47.51C176.781 47.07 177.084 46.5367 177.297 45.91C177.511 45.2767 177.617 44.5633 177.617 43.77ZM203.277 36.54L198.787 51H196.357L193.197 41.12C193.11 40.88 193.03 40.5867 192.957 40.24C192.917 40.4067 192.877 40.5633 192.837 40.71C192.797 40.8567 192.753 40.9933 192.707 41.12L189.517 51H187.077L182.597 36.54H184.847C185.08 36.54 185.273 36.5967 185.427 36.71C185.587 36.8167 185.693 36.9633 185.747 37.15L188.207 45.8C188.26 46.0133 188.31 46.2467 188.357 46.5C188.41 46.7467 188.463 47.0067 188.517 47.28C188.57 47 188.627 46.7367 188.687 46.49C188.753 46.2433 188.823 46.0133 188.897 45.8L191.737 37.15C191.79 36.9967 191.893 36.8567 192.047 36.73C192.207 36.6033 192.4 36.54 192.627 36.54H193.417C193.65 36.54 193.84 36.5967 193.987 36.71C194.133 36.8233 194.243 36.97 194.317 37.15L197.147 45.8C197.287 46.2133 197.413 46.69 197.527 47.23C197.613 46.7033 197.71 46.2267 197.817 45.8L200.277 37.15C200.317 36.9833 200.417 36.84 200.577 36.72C200.743 36.6 200.94 36.54 201.167 36.54H203.277Z" fill="#E64F3A"/>
</svg>
