<svg width="122" height="24" viewBox="0 0 122 24" fill="none" xmlns="http://www.w3.org/2000/svg">
<rect opacity="0.3" x="10" y="11" width="112" height="13" fill="#E54F3A"/>
<path d="M7.12 12.86C7.12 13.6733 7.02 14.4067 6.82 15.06C6.62 15.7133 6.32 16.27 5.92 16.73C5.52667 17.19 5.03333 17.5433 4.44 17.79C3.84667 18.0367 3.15667 18.16 2.37 18.16C2.01 18.16 1.65667 18.1367 1.31 18.09C0.963333 18.05 0.6 17.9833 0.22 17.89C0.24 17.6233 0.263333 17.3567 0.29 17.09C0.316667 16.8233 0.34 16.5567 0.36 16.29C0.38 16.1433 0.436667 16.0267 0.53 15.94C0.63 15.8467 0.77 15.8 0.95 15.8C1.06333 15.8 1.21 15.8233 1.39 15.87C1.57667 15.9167 1.81 15.94 2.09 15.94C2.47 15.94 2.80667 15.8867 3.1 15.78C3.39333 15.6667 3.63667 15.49 3.83 15.25C4.03 15.01 4.18 14.7 4.28 14.32C4.38 13.9333 4.43 13.4667 4.43 12.92V3.54H7.12V12.86ZM25.5938 10.77C25.5938 11.83 25.4171 12.8133 25.0638 13.72C24.7171 14.62 24.2238 15.4 23.5838 16.06C22.9438 16.72 22.1738 17.2367 21.2738 17.61C20.3738 17.9767 19.3738 18.16 18.2738 18.16C17.1804 18.16 16.1838 17.9767 15.2838 17.61C14.3838 17.2367 13.6104 16.72 12.9638 16.06C12.3238 15.4 11.8271 14.62 11.4738 13.72C11.1204 12.8133 10.9438 11.83 10.9438 10.77C10.9438 9.71 11.1204 8.73 11.4738 7.83C11.8271 6.92333 12.3238 6.14 12.9638 5.48C13.6104 4.82 14.3838 4.30667 15.2838 3.94C16.1838 3.56667 17.1804 3.38 18.2738 3.38C19.0071 3.38 19.6971 3.46667 20.3438 3.64C20.9904 3.80667 21.5838 4.04667 22.1238 4.36C22.6638 4.66667 23.1471 5.04333 23.5738 5.49C24.0071 5.93 24.3738 6.42333 24.6738 6.97C24.9738 7.51667 25.2004 8.11 25.3538 8.75C25.5138 9.39 25.5938 10.0633 25.5938 10.77ZM22.8438 10.77C22.8438 9.97667 22.7371 9.26667 22.5238 8.64C22.3104 8.00667 22.0071 7.47 21.6138 7.03C21.2204 6.59 20.7404 6.25333 20.1738 6.02C19.6138 5.78667 18.9804 5.67 18.2738 5.67C17.5671 5.67 16.9304 5.78667 16.3638 6.02C15.8038 6.25333 15.3238 6.59 14.9238 7.03C14.5304 7.47 14.2271 8.00667 14.0138 8.64C13.8004 9.26667 13.6938 9.97667 13.6938 10.77C13.6938 11.5633 13.8004 12.2767 14.0138 12.91C14.2271 13.5367 14.5304 14.07 14.9238 14.51C15.3238 14.9433 15.8038 15.2767 16.3638 15.51C16.9304 15.7433 17.5671 15.86 18.2738 15.86C18.9804 15.86 19.6138 15.7433 20.1738 15.51C20.7404 15.2767 21.2204 14.9433 21.6138 14.51C22.0071 14.07 22.3104 13.5367 22.5238 12.91C22.7371 12.2767 22.8438 11.5633 22.8438 10.77ZM32.2561 18H29.5561V3.54H32.2561V18ZM49.2836 3.54V18H47.9036C47.6903 18 47.5103 17.9667 47.3636 17.9C47.2236 17.8267 47.0869 17.7067 46.9536 17.54L39.4036 7.9C39.4436 8.34 39.4636 8.74667 39.4636 9.12V18H37.0936V3.54H38.5036C38.6169 3.54 38.7136 3.54667 38.7936 3.56C38.8803 3.56667 38.9536 3.58667 39.0136 3.62C39.0803 3.64667 39.1436 3.69 39.2036 3.75C39.2636 3.80333 39.3303 3.87667 39.4036 3.97L46.9836 13.65C46.9636 13.4167 46.9469 13.1867 46.9336 12.96C46.9203 12.7333 46.9136 12.5233 46.9136 12.33V3.54H49.2836ZM72.757 3.54V18H71.377C71.1637 18 70.9837 17.9667 70.837 17.9C70.697 17.8267 70.5604 17.7067 70.427 17.54L62.877 7.9C62.917 8.34 62.937 8.74667 62.937 9.12V18H60.567V3.54H61.977C62.0904 3.54 62.187 3.54667 62.267 3.56C62.3537 3.56667 62.427 3.58667 62.487 3.62C62.5537 3.64667 62.617 3.69 62.677 3.75C62.737 3.80333 62.8037 3.87667 62.877 3.97L70.457 13.65C70.437 13.4167 70.4204 13.1867 70.407 12.96C70.3937 12.7333 70.387 12.5233 70.387 12.33V3.54H72.757ZM91.3672 10.77C91.3672 11.83 91.1905 12.8133 90.8372 13.72C90.4905 14.62 89.9972 15.4 89.3572 16.06C88.7172 16.72 87.9472 17.2367 87.0472 17.61C86.1472 17.9767 85.1472 18.16 84.0472 18.16C82.9539 18.16 81.9572 17.9767 81.0572 17.61C80.1572 17.2367 79.3839 16.72 78.7372 16.06C78.0972 15.4 77.6005 14.62 77.2472 13.72C76.8939 12.8133 76.7172 11.83 76.7172 10.77C76.7172 9.71 76.8939 8.73 77.2472 7.83C77.6005 6.92333 78.0972 6.14 78.7372 5.48C79.3839 4.82 80.1572 4.30667 81.0572 3.94C81.9572 3.56667 82.9539 3.38 84.0472 3.38C84.7805 3.38 85.4705 3.46667 86.1172 3.64C86.7639 3.80667 87.3572 4.04667 87.8972 4.36C88.4372 4.66667 88.9205 5.04333 89.3472 5.49C89.7805 5.93 90.1472 6.42333 90.4472 6.97C90.7472 7.51667 90.9739 8.11 91.1272 8.75C91.2872 9.39 91.3672 10.0633 91.3672 10.77ZM88.6172 10.77C88.6172 9.97667 88.5105 9.26667 88.2972 8.64C88.0839 8.00667 87.7805 7.47 87.3872 7.03C86.9939 6.59 86.5139 6.25333 85.9472 6.02C85.3872 5.78667 84.7539 5.67 84.0472 5.67C83.3405 5.67 82.7039 5.78667 82.1372 6.02C81.5772 6.25333 81.0972 6.59 80.6972 7.03C80.3039 7.47 80.0005 8.00667 79.7872 8.64C79.5739 9.26667 79.4672 9.97667 79.4672 10.77C79.4672 11.5633 79.5739 12.2767 79.7872 12.91C80.0005 13.5367 80.3039 14.07 80.6972 14.51C81.0972 14.9433 81.5772 15.2767 82.1372 15.51C82.7039 15.7433 83.3405 15.86 84.0472 15.86C84.7539 15.86 85.3872 15.7433 85.9472 15.51C86.5139 15.2767 86.9939 14.9433 87.3872 14.51C87.7805 14.07 88.0839 13.5367 88.2972 12.91C88.5105 12.2767 88.6172 11.5633 88.6172 10.77ZM114.277 3.54L109.787 18H107.357L104.197 8.12C104.11 7.88 104.03 7.58667 103.957 7.24C103.917 7.40667 103.877 7.56333 103.837 7.71C103.797 7.85667 103.753 7.99333 103.707 8.12L100.517 18H98.0766L93.5966 3.54H95.8466C96.0799 3.54 96.2732 3.59667 96.4266 3.71C96.5866 3.81667 96.6932 3.96333 96.7466 4.15L99.2066 12.8C99.2599 13.0133 99.3099 13.2467 99.3566 13.5C99.4099 13.7467 99.4632 14.0067 99.5166 14.28C99.5699 14 99.6266 13.7367 99.6866 13.49C99.7532 13.2433 99.8232 13.0133 99.8966 12.8L102.737 4.15C102.79 3.99667 102.893 3.85667 103.047 3.73C103.207 3.60333 103.4 3.54 103.627 3.54H104.417C104.65 3.54 104.84 3.59667 104.987 3.71C105.133 3.82333 105.243 3.97 105.317 4.15L108.147 12.8C108.287 13.2133 108.413 13.69 108.527 14.23C108.613 13.7033 108.71 13.2267 108.817 12.8L111.277 4.15C111.317 3.98333 111.417 3.84 111.577 3.72C111.743 3.6 111.94 3.54 112.167 3.54H114.277Z" fill="#E64F3A"/>
</svg>
