<svg width="173" height="24" viewBox="0 0 173 24" fill="none" xmlns="http://www.w3.org/2000/svg">
<rect opacity="0.3" x="10" y="11" width="163" height="13" fill="#E54F3A"/>
<path d="M9.31 6.17C9.23 6.31 9.14333 6.41333 9.05 6.48C8.96333 6.54 8.85333 6.57 8.72 6.57C8.58 6.57 8.42667 6.52 8.26 6.42C8.1 6.31333 7.90667 6.19667 7.68 6.07C7.45333 5.94333 7.18667 5.83 6.88 5.73C6.58 5.62333 6.22333 5.57 5.81 5.57C5.43667 5.57 5.11 5.61667 4.83 5.71C4.55 5.79667 4.31333 5.92 4.12 6.08C3.93333 6.24 3.79333 6.43333 3.7 6.66C3.60667 6.88 3.56 7.12333 3.56 7.39C3.56 7.73 3.65333 8.01333 3.84 8.24C4.03333 8.46667 4.28667 8.66 4.6 8.82C4.91333 8.98 5.27 9.12333 5.67 9.25C6.07 9.37667 6.48 9.51333 6.9 9.66C7.32 9.8 7.73 9.96667 8.13 10.16C8.53 10.3467 8.88667 10.5867 9.2 10.88C9.51333 11.1667 9.76333 11.52 9.95 11.94C10.1433 12.36 10.24 12.87 10.24 13.47C10.24 14.1233 10.1267 14.7367 9.9 15.31C9.68 15.8767 9.35333 16.3733 8.92 16.8C8.49333 17.22 7.97 17.5533 7.35 17.8C6.73 18.04 6.02 18.16 5.22 18.16C4.76 18.16 4.30667 18.1133 3.86 18.02C3.41333 17.9333 2.98333 17.8067 2.57 17.64C2.16333 17.4733 1.78 17.2733 1.42 17.04C1.06 16.8067 0.74 16.5467 0.46 16.26L1.25 14.97C1.31667 14.8767 1.40333 14.8 1.51 14.74C1.61667 14.6733 1.73 14.64 1.85 14.64C2.01667 14.64 2.19667 14.71 2.39 14.85C2.58333 14.9833 2.81333 15.1333 3.08 15.3C3.34667 15.4667 3.65667 15.62 4.01 15.76C4.37 15.8933 4.8 15.96 5.3 15.96C6.06667 15.96 6.66 15.78 7.08 15.42C7.5 15.0533 7.71 14.53 7.71 13.85C7.71 13.47 7.61333 13.16 7.42 12.92C7.23333 12.68 6.98333 12.48 6.67 12.32C6.35667 12.1533 6 12.0133 5.6 11.9C5.2 11.7867 4.79333 11.6633 4.38 11.53C3.96667 11.3967 3.56 11.2367 3.16 11.05C2.76 10.8633 2.40333 10.62 2.09 10.32C1.77667 10.02 1.52333 9.64667 1.33 9.2C1.14333 8.74667 1.05 8.19 1.05 7.53C1.05 7.00333 1.15333 6.49 1.36 5.99C1.57333 5.49 1.88 5.04667 2.28 4.66C2.68 4.27333 3.17333 3.96333 3.76 3.73C4.34667 3.49667 5.02 3.38 5.78 3.38C6.63333 3.38 7.42 3.51333 8.14 3.78C8.86 4.04667 9.47333 4.42 9.98 4.9L9.31 6.17ZM16.8866 5.68V9.69H21.9466V11.76H16.8866V15.85H23.3066V18H14.1866V3.54H23.3066V5.68H16.8866ZM39.4805 3.54V18H38.1005C37.8871 18 37.7071 17.9667 37.5605 17.9C37.4205 17.8267 37.2838 17.7067 37.1505 17.54L29.6005 7.9C29.6405 8.34 29.6605 8.74667 29.6605 9.12V18H27.2905V3.54H28.7005C28.8138 3.54 28.9105 3.54667 28.9905 3.56C29.0771 3.56667 29.1505 3.58667 29.2105 3.62C29.2771 3.64667 29.3405 3.69 29.4005 3.75C29.4605 3.80333 29.5271 3.87667 29.6005 3.97L37.1805 13.65C37.1605 13.4167 37.1438 13.1867 37.1305 12.96C37.1171 12.7333 37.1105 12.5233 37.1105 12.33V3.54H39.4805ZM57.1406 10.77C57.1406 11.83 56.964 12.8033 56.6106 13.69C56.2573 14.5767 55.7606 15.34 55.1206 15.98C54.4806 16.62 53.7106 17.1167 52.8106 17.47C51.9106 17.8233 50.9106 18 49.8106 18H44.3006V3.54H49.8106C50.9106 3.54 51.9106 3.72 52.8106 4.08C53.7106 4.43333 54.4806 4.93 55.1206 5.57C55.7606 6.20333 56.2573 6.96333 56.6106 7.85C56.964 8.73667 57.1406 9.71 57.1406 10.77ZM54.3806 10.77C54.3806 9.97667 54.274 9.26667 54.0606 8.64C53.854 8.00667 53.5506 7.47333 53.1506 7.04C52.7573 6.6 52.2773 6.26333 51.7106 6.03C51.1506 5.79667 50.5173 5.68 49.8106 5.68H47.0006V15.86H49.8106C50.5173 15.86 51.1506 15.7433 51.7106 15.51C52.2773 15.2767 52.7573 14.9433 53.1506 14.51C53.5506 14.07 53.854 13.5367 54.0606 12.91C54.274 12.2767 54.3806 11.5633 54.3806 10.77ZM71.9488 10.42C72.4554 10.42 72.8954 10.3567 73.2688 10.23C73.6488 10.1033 73.9588 9.93 74.1988 9.71C74.4454 9.48333 74.6288 9.21667 74.7488 8.91C74.8688 8.60333 74.9288 8.26667 74.9288 7.9C74.9288 7.16667 74.6854 6.60333 74.1988 6.21C73.7188 5.81667 72.9821 5.62 71.9888 5.62H70.2688V10.42H71.9488ZM78.8688 18H76.4388C75.9788 18 75.6454 17.82 75.4388 17.46L72.3988 12.83C72.2854 12.6567 72.1588 12.5333 72.0188 12.46C71.8854 12.3867 71.6854 12.35 71.4188 12.35H70.2688V18H67.5788V3.54H71.9888C72.9688 3.54 73.8088 3.64333 74.5088 3.85C75.2154 4.05 75.7921 4.33333 76.2388 4.7C76.6921 5.06667 77.0254 5.50667 77.2388 6.02C77.4521 6.52667 77.5588 7.08667 77.5588 7.7C77.5588 8.18667 77.4854 8.64667 77.3388 9.08C77.1988 9.51333 76.9921 9.90667 76.7188 10.26C76.4521 10.6133 76.1188 10.9233 75.7188 11.19C75.3254 11.4567 74.8754 11.6667 74.3688 11.82C74.5421 11.92 74.7021 12.04 74.8488 12.18C74.9954 12.3133 75.1288 12.4733 75.2488 12.66L78.8688 18ZM84.7303 5.68V9.69H89.7903V11.76H84.7303V15.85H91.1503V18H82.0303V3.54H91.1503V5.68H84.7303ZM96.7217 10.77C96.7217 11.5633 96.8284 12.2767 97.0417 12.91C97.255 13.5367 97.5584 14.07 97.9517 14.51C98.3517 14.9433 98.8317 15.2767 99.3917 15.51C99.9584 15.7433 100.595 15.86 101.302 15.86C102.008 15.86 102.642 15.7433 103.202 15.51C103.768 15.2767 104.248 14.9433 104.642 14.51C105.035 14.07 105.338 13.5367 105.552 12.91C105.765 12.2767 105.872 11.5633 105.872 10.77C105.872 9.97667 105.765 9.26667 105.552 8.64C105.338 8.00667 105.035 7.47 104.642 7.03C104.248 6.59 103.768 6.25333 103.202 6.02C102.642 5.78667 102.008 5.67 101.302 5.67C100.595 5.67 99.9584 5.78667 99.3917 6.02C98.8317 6.25333 98.3517 6.59 97.9517 7.03C97.5584 7.47 97.255 8.00667 97.0417 8.64C96.8284 9.26667 96.7217 9.97667 96.7217 10.77ZM109.372 20.83H107.152C106.832 20.83 106.542 20.7867 106.282 20.7C106.028 20.6133 105.795 20.4533 105.582 20.22L103.462 17.88C103.122 17.9733 102.772 18.0433 102.412 18.09C102.058 18.1367 101.688 18.16 101.302 18.16C100.208 18.16 99.2117 17.9767 98.3117 17.61C97.4117 17.2367 96.6384 16.72 95.9917 16.06C95.3517 15.4 94.855 14.62 94.5017 13.72C94.1484 12.8133 93.9717 11.83 93.9717 10.77C93.9717 9.71 94.1484 8.73 94.5017 7.83C94.855 6.92333 95.3517 6.14 95.9917 5.48C96.6384 4.82 97.4117 4.30667 98.3117 3.94C99.2117 3.56667 100.208 3.38 101.302 3.38C102.035 3.38 102.725 3.46667 103.372 3.64C104.018 3.80667 104.612 4.04667 105.152 4.36C105.692 4.66667 106.175 5.04333 106.602 5.49C107.035 5.93 107.402 6.42333 107.702 6.97C108.002 7.51667 108.228 8.11 108.382 8.75C108.542 9.39 108.622 10.0633 108.622 10.77C108.622 11.4167 108.555 12.0367 108.422 12.63C108.288 13.2167 108.095 13.7667 107.842 14.28C107.595 14.7933 107.292 15.2667 106.932 15.7C106.572 16.1267 106.162 16.5033 105.702 16.83L109.372 20.83ZM118.394 15.83C118.914 15.83 119.377 15.7433 119.784 15.57C120.197 15.3967 120.544 15.1533 120.824 14.84C121.104 14.5267 121.317 14.1467 121.464 13.7C121.617 13.2533 121.694 12.7533 121.694 12.2V3.54H124.384V12.2C124.384 13.06 124.244 13.8567 123.964 14.59C123.691 15.3167 123.294 15.9467 122.774 16.48C122.261 17.0067 121.634 17.42 120.894 17.72C120.154 18.0133 119.321 18.16 118.394 18.16C117.461 18.16 116.624 18.0133 115.884 17.72C115.144 17.42 114.514 17.0067 113.994 16.48C113.481 15.9467 113.084 15.3167 112.804 14.59C112.531 13.8567 112.394 13.06 112.394 12.2V3.54H115.084V12.19C115.084 12.7433 115.157 13.2433 115.304 13.69C115.457 14.1367 115.674 14.52 115.954 14.84C116.241 15.1533 116.587 15.3967 116.994 15.57C117.407 15.7433 117.874 15.83 118.394 15.83ZM131.718 5.68V9.69H136.778V11.76H131.718V15.85H138.138V18H129.018V3.54H138.138V5.68H131.718ZM149.822 6.17C149.742 6.31 149.655 6.41333 149.562 6.48C149.475 6.54 149.365 6.57 149.232 6.57C149.092 6.57 148.938 6.52 148.772 6.42C148.612 6.31333 148.418 6.19667 148.192 6.07C147.965 5.94333 147.698 5.83 147.392 5.73C147.092 5.62333 146.735 5.57 146.322 5.57C145.948 5.57 145.622 5.61667 145.342 5.71C145.062 5.79667 144.825 5.92 144.632 6.08C144.445 6.24 144.305 6.43333 144.212 6.66C144.118 6.88 144.072 7.12333 144.072 7.39C144.072 7.73 144.165 8.01333 144.352 8.24C144.545 8.46667 144.798 8.66 145.112 8.82C145.425 8.98 145.782 9.12333 146.182 9.25C146.582 9.37667 146.992 9.51333 147.412 9.66C147.832 9.8 148.242 9.96667 148.642 10.16C149.042 10.3467 149.398 10.5867 149.712 10.88C150.025 11.1667 150.275 11.52 150.462 11.94C150.655 12.36 150.752 12.87 150.752 13.47C150.752 14.1233 150.638 14.7367 150.412 15.31C150.192 15.8767 149.865 16.3733 149.432 16.8C149.005 17.22 148.482 17.5533 147.862 17.8C147.242 18.04 146.532 18.16 145.732 18.16C145.272 18.16 144.818 18.1133 144.372 18.02C143.925 17.9333 143.495 17.8067 143.082 17.64C142.675 17.4733 142.292 17.2733 141.932 17.04C141.572 16.8067 141.252 16.5467 140.972 16.26L141.762 14.97C141.828 14.8767 141.915 14.8 142.022 14.74C142.128 14.6733 142.242 14.64 142.362 14.64C142.528 14.64 142.708 14.71 142.902 14.85C143.095 14.9833 143.325 15.1333 143.592 15.3C143.858 15.4667 144.168 15.62 144.522 15.76C144.882 15.8933 145.312 15.96 145.812 15.96C146.578 15.96 147.172 15.78 147.592 15.42C148.012 15.0533 148.222 14.53 148.222 13.85C148.222 13.47 148.125 13.16 147.932 12.92C147.745 12.68 147.495 12.48 147.182 12.32C146.868 12.1533 146.512 12.0133 146.112 11.9C145.712 11.7867 145.305 11.6633 144.892 11.53C144.478 11.3967 144.072 11.2367 143.672 11.05C143.272 10.8633 142.915 10.62 142.602 10.32C142.288 10.02 142.035 9.64667 141.842 9.2C141.655 8.74667 141.562 8.19 141.562 7.53C141.562 7.00333 141.665 6.49 141.872 5.99C142.085 5.49 142.392 5.04667 142.792 4.66C143.192 4.27333 143.685 3.96333 144.272 3.73C144.858 3.49667 145.532 3.38 146.292 3.38C147.145 3.38 147.932 3.51333 148.652 3.78C149.372 4.04667 149.985 4.42 150.492 4.9L149.822 6.17ZM164.798 5.75H160.438V18H157.748V5.75H153.388V3.54H164.798V5.75Z" fill="#E54F3A"/>
</svg>
