<svg width="182" height="24" viewBox="0 0 182 24" fill="none" xmlns="http://www.w3.org/2000/svg">
<rect opacity="0.3" x="10" y="11" width="172" height="13" fill="#F1897B"/>
<path d="M11.54 14.59C11.6867 14.59 11.8167 14.6467 11.93 14.76L12.99 15.91C12.4033 16.6367 11.68 17.1933 10.82 17.58C9.96667 17.9667 8.94 18.16 7.74 18.16C6.66667 18.16 5.7 17.9767 4.84 17.61C3.98667 17.2433 3.25667 16.7333 2.65 16.08C2.04333 15.4267 1.57667 14.6467 1.25 13.74C0.93 12.8333 0.77 11.8433 0.77 10.77C0.77 9.68333 0.943333 8.69 1.29 7.79C1.63667 6.88333 2.12333 6.10333 2.75 5.45C3.38333 4.79667 4.13667 4.29 5.01 3.93C5.88333 3.56333 6.85 3.38 7.91 3.38C8.96333 3.38 9.89667 3.55333 10.71 3.9C11.53 4.24667 12.2267 4.7 12.8 5.26L11.9 6.51C11.8467 6.59 11.7767 6.66 11.69 6.72C11.61 6.78 11.4967 6.81 11.35 6.81C11.25 6.81 11.1467 6.78333 11.04 6.73C10.9333 6.67 10.8167 6.6 10.69 6.52C10.5633 6.43333 10.4167 6.34 10.25 6.24C10.0833 6.14 9.89 6.05 9.67 5.97C9.45 5.88333 9.19333 5.81333 8.9 5.76C8.61333 5.7 8.28 5.67 7.9 5.67C7.25333 5.67 6.66 5.78667 6.12 6.02C5.58667 6.24667 5.12667 6.58 4.74 7.02C4.35333 7.45333 4.05333 7.98667 3.84 8.62C3.62667 9.24667 3.52 9.96333 3.52 10.77C3.52 11.5833 3.63333 12.3067 3.86 12.94C4.09333 13.5733 4.40667 14.1067 4.8 14.54C5.19333 14.9733 5.65667 15.3067 6.19 15.54C6.72333 15.7667 7.29667 15.88 7.91 15.88C8.27667 15.88 8.60667 15.86 8.9 15.82C9.2 15.78 9.47333 15.7167 9.72 15.63C9.97333 15.5433 10.21 15.4333 10.43 15.3C10.6567 15.16 10.88 14.99 11.1 14.79C11.1667 14.73 11.2367 14.6833 11.31 14.65C11.3833 14.61 11.46 14.59 11.54 14.59ZM29.9102 10.77C29.9102 11.83 29.7335 12.8133 29.3802 13.72C29.0335 14.62 28.5402 15.4 27.9002 16.06C27.2602 16.72 26.4902 17.2367 25.5902 17.61C24.6902 17.9767 23.6902 18.16 22.5902 18.16C21.4968 18.16 20.5002 17.9767 19.6002 17.61C18.7002 17.2367 17.9268 16.72 17.2802 16.06C16.6402 15.4 16.1435 14.62 15.7902 13.72C15.4368 12.8133 15.2602 11.83 15.2602 10.77C15.2602 9.71 15.4368 8.73 15.7902 7.83C16.1435 6.92333 16.6402 6.14 17.2802 5.48C17.9268 4.82 18.7002 4.30667 19.6002 3.94C20.5002 3.56667 21.4968 3.38 22.5902 3.38C23.3235 3.38 24.0135 3.46667 24.6602 3.64C25.3068 3.80667 25.9002 4.04667 26.4402 4.36C26.9802 4.66667 27.4635 5.04333 27.8902 5.49C28.3235 5.93 28.6902 6.42333 28.9902 6.97C29.2902 7.51667 29.5168 8.11 29.6702 8.75C29.8302 9.39 29.9102 10.0633 29.9102 10.77ZM27.1602 10.77C27.1602 9.97667 27.0535 9.26667 26.8402 8.64C26.6268 8.00667 26.3235 7.47 25.9302 7.03C25.5368 6.59 25.0568 6.25333 24.4902 6.02C23.9302 5.78667 23.2968 5.67 22.5902 5.67C21.8835 5.67 21.2468 5.78667 20.6802 6.02C20.1202 6.25333 19.6402 6.59 19.2402 7.03C18.8468 7.47 18.5435 8.00667 18.3302 8.64C18.1168 9.26667 18.0102 9.97667 18.0102 10.77C18.0102 11.5633 18.1168 12.2767 18.3302 12.91C18.5435 13.5367 18.8468 14.07 19.2402 14.51C19.6402 14.9433 20.1202 15.2767 20.6802 15.51C21.2468 15.7433 21.8835 15.86 22.5902 15.86C23.2968 15.86 23.9302 15.7433 24.4902 15.51C25.0568 15.2767 25.5368 14.9433 25.9302 14.51C26.3235 14.07 26.6268 13.5367 26.8402 12.91C27.0535 12.2767 27.1602 11.5633 27.1602 10.77ZM46.0625 3.54V18H44.6825C44.4692 18 44.2892 17.9667 44.1425 17.9C44.0025 17.8267 43.8658 17.7067 43.7325 17.54L36.1825 7.9C36.2225 8.34 36.2425 8.74667 36.2425 9.12V18H33.8725V3.54H35.2825C35.3958 3.54 35.4925 3.54667 35.5725 3.56C35.6592 3.56667 35.7325 3.58667 35.7925 3.62C35.8592 3.64667 35.9225 3.69 35.9825 3.75C36.0425 3.80333 36.1092 3.87667 36.1825 3.97L43.7625 13.65C43.7425 13.4167 43.7258 13.1867 43.7125 12.96C43.6992 12.7333 43.6925 12.5233 43.6925 12.33V3.54H46.0625ZM60.9827 5.75H56.6227V18H53.9327V5.75H49.5727V3.54H60.9827V5.75ZM70.7086 12.54L68.9486 7.73C68.8619 7.51667 68.7719 7.26333 68.6786 6.97C68.5853 6.67667 68.4919 6.36 68.3986 6.02C68.3119 6.36 68.2219 6.68 68.1286 6.98C68.0353 7.27333 67.9453 7.53 67.8586 7.75L66.1086 12.54H70.7086ZM75.4586 18H73.3786C73.1453 18 72.9553 17.9433 72.8086 17.83C72.6619 17.71 72.5519 17.5633 72.4786 17.39L71.3986 14.44H65.4086L64.3286 17.39C64.2753 17.5433 64.1719 17.6833 64.0186 17.81C63.8653 17.9367 63.6753 18 63.4486 18H61.3486L67.0386 3.54H69.7786L75.4586 18ZM88.0556 14.59C88.2023 14.59 88.3323 14.6467 88.4456 14.76L89.5056 15.91C88.919 16.6367 88.1956 17.1933 87.3356 17.58C86.4823 17.9667 85.4556 18.16 84.2556 18.16C83.1823 18.16 82.2156 17.9767 81.3556 17.61C80.5023 17.2433 79.7723 16.7333 79.1656 16.08C78.559 15.4267 78.0923 14.6467 77.7656 13.74C77.4456 12.8333 77.2856 11.8433 77.2856 10.77C77.2856 9.68333 77.459 8.69 77.8056 7.79C78.1523 6.88333 78.639 6.10333 79.2656 5.45C79.899 4.79667 80.6523 4.29 81.5256 3.93C82.399 3.56333 83.3656 3.38 84.4256 3.38C85.479 3.38 86.4123 3.55333 87.2256 3.9C88.0456 4.24667 88.7423 4.7 89.3156 5.26L88.4156 6.51C88.3623 6.59 88.2923 6.66 88.2056 6.72C88.1256 6.78 88.0123 6.81 87.8656 6.81C87.7656 6.81 87.6623 6.78333 87.5556 6.73C87.449 6.67 87.3323 6.6 87.2056 6.52C87.079 6.43333 86.9323 6.34 86.7656 6.24C86.599 6.14 86.4056 6.05 86.1856 5.97C85.9656 5.88333 85.709 5.81333 85.4156 5.76C85.129 5.7 84.7956 5.67 84.4156 5.67C83.769 5.67 83.1756 5.78667 82.6356 6.02C82.1023 6.24667 81.6423 6.58 81.2556 7.02C80.869 7.45333 80.569 7.98667 80.3556 8.62C80.1423 9.24667 80.0356 9.96333 80.0356 10.77C80.0356 11.5833 80.149 12.3067 80.3756 12.94C80.609 13.5733 80.9223 14.1067 81.3156 14.54C81.709 14.9733 82.1723 15.3067 82.7056 15.54C83.239 15.7667 83.8123 15.88 84.4256 15.88C84.7923 15.88 85.1223 15.86 85.4156 15.82C85.7156 15.78 85.989 15.7167 86.2356 15.63C86.489 15.5433 86.7256 15.4333 86.9456 15.3C87.1723 15.16 87.3956 14.99 87.6156 14.79C87.6823 14.73 87.7523 14.6833 87.8256 14.65C87.899 14.61 87.9756 14.59 88.0556 14.59ZM103.048 5.75H98.6883V18H95.9983V5.75H91.6383V3.54H103.048V5.75ZM120.098 6.17C120.018 6.31 119.932 6.41333 119.838 6.48C119.752 6.54 119.642 6.57 119.508 6.57C119.368 6.57 119.215 6.52 119.048 6.42C118.888 6.31333 118.695 6.19667 118.468 6.07C118.242 5.94333 117.975 5.83 117.668 5.73C117.368 5.62333 117.012 5.57 116.598 5.57C116.225 5.57 115.898 5.61667 115.618 5.71C115.338 5.79667 115.102 5.92 114.908 6.08C114.722 6.24 114.582 6.43333 114.488 6.66C114.395 6.88 114.348 7.12333 114.348 7.39C114.348 7.73 114.442 8.01333 114.628 8.24C114.822 8.46667 115.075 8.66 115.388 8.82C115.702 8.98 116.058 9.12333 116.458 9.25C116.858 9.37667 117.268 9.51333 117.688 9.66C118.108 9.8 118.518 9.96667 118.918 10.16C119.318 10.3467 119.675 10.5867 119.988 10.88C120.302 11.1667 120.552 11.52 120.738 11.94C120.932 12.36 121.028 12.87 121.028 13.47C121.028 14.1233 120.915 14.7367 120.688 15.31C120.468 15.8767 120.142 16.3733 119.708 16.8C119.282 17.22 118.758 17.5533 118.138 17.8C117.518 18.04 116.808 18.16 116.008 18.16C115.548 18.16 115.095 18.1133 114.648 18.02C114.202 17.9333 113.772 17.8067 113.358 17.64C112.952 17.4733 112.568 17.2733 112.208 17.04C111.848 16.8067 111.528 16.5467 111.248 16.26L112.038 14.97C112.105 14.8767 112.192 14.8 112.298 14.74C112.405 14.6733 112.518 14.64 112.638 14.64C112.805 14.64 112.985 14.71 113.178 14.85C113.372 14.9833 113.602 15.1333 113.868 15.3C114.135 15.4667 114.445 15.62 114.798 15.76C115.158 15.8933 115.588 15.96 116.088 15.96C116.855 15.96 117.448 15.78 117.868 15.42C118.288 15.0533 118.498 14.53 118.498 13.85C118.498 13.47 118.402 13.16 118.208 12.92C118.022 12.68 117.772 12.48 117.458 12.32C117.145 12.1533 116.788 12.0133 116.388 11.9C115.988 11.7867 115.582 11.6633 115.168 11.53C114.755 11.3967 114.348 11.2367 113.948 11.05C113.548 10.8633 113.192 10.62 112.878 10.32C112.565 10.02 112.312 9.64667 112.118 9.2C111.932 8.74667 111.838 8.19 111.838 7.53C111.838 7.00333 111.942 6.49 112.148 5.99C112.362 5.49 112.668 5.04667 113.068 4.66C113.468 4.27333 113.962 3.96333 114.548 3.73C115.135 3.49667 115.808 3.38 116.568 3.38C117.422 3.38 118.208 3.51333 118.928 3.78C119.648 4.04667 120.262 4.42 120.768 4.9L120.098 6.17ZM132.322 12.54L130.562 7.73C130.475 7.51667 130.385 7.26333 130.292 6.97C130.199 6.67667 130.105 6.36 130.012 6.02C129.925 6.36 129.835 6.68 129.742 6.98C129.649 7.27333 129.559 7.53 129.472 7.75L127.722 12.54H132.322ZM137.072 18H134.992C134.759 18 134.569 17.9433 134.422 17.83C134.275 17.71 134.165 17.5633 134.092 17.39L133.012 14.44H127.022L125.942 17.39C125.889 17.5433 125.785 17.6833 125.632 17.81C125.479 17.9367 125.289 18 125.062 18H122.962L128.652 3.54H131.392L137.072 18ZM148.639 15.78V18H140.169V3.54H142.859V15.78H148.639ZM154.859 5.68V9.69H159.919V11.76H154.859V15.85H161.279V18H152.159V3.54H161.279V5.68H154.859ZM172.963 6.17C172.883 6.31 172.796 6.41333 172.703 6.48C172.616 6.54 172.506 6.57 172.373 6.57C172.233 6.57 172.08 6.52 171.913 6.42C171.753 6.31333 171.56 6.19667 171.333 6.07C171.106 5.94333 170.84 5.83 170.533 5.73C170.233 5.62333 169.876 5.57 169.463 5.57C169.09 5.57 168.763 5.61667 168.483 5.71C168.203 5.79667 167.966 5.92 167.773 6.08C167.586 6.24 167.446 6.43333 167.353 6.66C167.26 6.88 167.213 7.12333 167.213 7.39C167.213 7.73 167.306 8.01333 167.493 8.24C167.686 8.46667 167.94 8.66 168.253 8.82C168.566 8.98 168.923 9.12333 169.323 9.25C169.723 9.37667 170.133 9.51333 170.553 9.66C170.973 9.8 171.383 9.96667 171.783 10.16C172.183 10.3467 172.54 10.5867 172.853 10.88C173.166 11.1667 173.416 11.52 173.603 11.94C173.796 12.36 173.893 12.87 173.893 13.47C173.893 14.1233 173.78 14.7367 173.553 15.31C173.333 15.8767 173.006 16.3733 172.573 16.8C172.146 17.22 171.623 17.5533 171.003 17.8C170.383 18.04 169.673 18.16 168.873 18.16C168.413 18.16 167.96 18.1133 167.513 18.02C167.066 17.9333 166.636 17.8067 166.223 17.64C165.816 17.4733 165.433 17.2733 165.073 17.04C164.713 16.8067 164.393 16.5467 164.113 16.26L164.903 14.97C164.97 14.8767 165.056 14.8 165.163 14.74C165.27 14.6733 165.383 14.64 165.503 14.64C165.67 14.64 165.85 14.71 166.043 14.85C166.236 14.9833 166.466 15.1333 166.733 15.3C167 15.4667 167.31 15.62 167.663 15.76C168.023 15.8933 168.453 15.96 168.953 15.96C169.72 15.96 170.313 15.78 170.733 15.42C171.153 15.0533 171.363 14.53 171.363 13.85C171.363 13.47 171.266 13.16 171.073 12.92C170.886 12.68 170.636 12.48 170.323 12.32C170.01 12.1533 169.653 12.0133 169.253 11.9C168.853 11.7867 168.446 11.6633 168.033 11.53C167.62 11.3967 167.213 11.2367 166.813 11.05C166.413 10.8633 166.056 10.62 165.743 10.32C165.43 10.02 165.176 9.64667 164.983 9.2C164.796 8.74667 164.703 8.19 164.703 7.53C164.703 7.00333 164.806 6.49 165.013 5.99C165.226 5.49 165.533 5.04667 165.933 4.66C166.333 4.27333 166.826 3.96333 167.413 3.73C168 3.49667 168.673 3.38 169.433 3.38C170.286 3.38 171.073 3.51333 171.793 3.78C172.513 4.04667 173.126 4.42 173.633 4.9L172.963 6.17Z" fill="#F1897B"/>
</svg>
